<svg width="96" height="96" viewBox="0 0 96 96" fill="none" xmlns="http://www.w3.org/2000/svg">
<path d="M16 76V68H24V40C24 34.4667 25.6667 29.5667 29 25.3C32.3333 20.9667 36.6667 18.1333 42 16.8V14C42 12.3333 42.5667 10.9333 43.7 9.8C44.9 8.6 46.3333 8 48 8C49.6667 8 51.0667 8.6 52.2 9.8C53.4 10.9333 54 12.3333 54 14V16.8C59.3333 18.1333 63.6667 20.9667 67 25.3C70.3333 29.5667 72 34.4667 72 40V68H80V76H16ZM48 88C45.8 88 43.9 87.2333 42.3 85.7C40.7667 84.1 40 82.2 40 80H56C56 82.2 55.2 84.1 53.6 85.7C52.0667 87.2333 50.2 88 48 88ZM32 68H64V40C64 35.6 62.4333 31.8333 59.3 28.7C56.1667 25.5667 52.4 24 48 24C43.6 24 39.8333 25.5667 36.7 28.7C33.5667 31.8333 32 35.6 32 40V68Z" fill="#1D1D1D"/>
</svg>
